<?xml version="1.0" standalone="no"?>
<!DOCTYPE svg PUBLIC "-//W3C//DTD SVG 20010904//EN"
 "http://www.w3.org/TR/2001/REC-SVG-20010904/DTD/svg10.dtd">
<svg version="1.0" xmlns="http://www.w3.org/2000/svg"
 width="96.000000pt" height="96.000000pt" viewBox="0 0 96.000000 96.000000"
 preserveAspectRatio="xMidYMid meet">

<g transform="translate(0.000000,96.000000) scale(0.100000,-0.100000)"
fill="#000000" stroke="none">
<path d="M496 840 c-58 -18 -106 -87 -106 -154 0 -10 27 -45 60 -78 62 -62 69
-75 48 -96 -35 -35 -88 4 -109 78 l-12 45 -10 -32 c-13 -42 -2 -79 33 -114 52
-52 116 -26 139 57 11 37 10 40 -18 64 -16 14 -44 34 -63 45 -18 11 -34 30
-36 41 -5 31 43 82 89 94 57 16 64 5 34 -47 -15 -24 -25 -46 -23 -49 2 -2 21
8 41 22 45 30 48 59 11 103 -27 33 -32 34 -78 21z"/>
<path d="M162 388 c-18 -18 -15 -29 19 -64 30 -31 32 -54 4 -54 -8 0 -19 8
-24 18 -9 15 -10 15 -11 -4 0 -17 6 -21 33 -20 27 1 32 5 35 27 2 19 -4 33
-22 47 -28 22 -35 52 -11 52 7 0 19 -8 24 -17 9 -16 10 -16 11 -2 0 26 -38 37
-58 17z"/>
<path d="M501 374 c-24 -31 -26 -43 -9 -79 26 -57 98 -35 98 32 0 34 -28 73
-54 73 -8 0 -24 -12 -35 -26z m57 4 c13 -13 16 -66 6 -92 -8 -22 -41 -20 -54
3 -29 55 10 127 48 89z"/>
<path d="M622 388 c-19 -19 -14 -46 13 -64 14 -9 25 -25 25 -35 0 -21 -20 -25
-38 -7 -9 9 -12 9 -12 -3 0 -18 39 -23 57 -7 22 18 15 41 -19 71 -32 26 -32
28 -14 42 11 8 15 15 10 15 -6 0 -15 -5 -22 -12z"/>
<path d="M280 381 c0 -5 -3 -18 -6 -28 -4 -13 -3 -14 3 -5 7 9 14 1 26 -29 9
-23 14 -46 11 -50 -3 -5 2 -9 11 -9 10 0 15 6 13 13 -3 6 -13 36 -22 65 -10
28 -22 52 -27 52 -5 0 -9 -4 -9 -9z"/>
<path d="M370 325 c0 -47 4 -65 13 -65 9 0 12 10 9 30 -2 17 0 30 6 30 6 0 19
-13 29 -30 9 -16 23 -30 31 -30 9 0 5 11 -12 31 -23 28 -24 32 -10 46 8 9 13
22 10 30 -3 8 -6 17 -6 19 0 2 -7 4 -16 4 -14 0 -14 -3 -4 -15 10 -12 10 -18
0 -30 -19 -23 -30 -18 -30 15 0 17 -4 30 -10 30 -6 0 -10 -28 -10 -65z"/>
<path d="M708 325 c-2 -47 0 -65 10 -65 7 0 12 14 12 35 0 31 3 35 26 35 24 0
26 -3 22 -35 -3 -24 0 -35 9 -35 9 0 13 18 13 65 0 37 -4 65 -10 65 -5 0 -10
-11 -10 -25 0 -20 -5 -25 -25 -25 -20 0 -25 5 -25 25 0 14 -4 25 -9 25 -5 0
-11 -29 -13 -65z"/>
<path d="M246 284 c-8 -20 -8 -24 2 -24 4 0 8 9 9 20 2 24 -3 26 -11 4z"/>
<path d="M124 185 c-8 -20 2 -45 18 -45 9 0 9 3 0 12 -7 7 -8 17 -1 30 7 12 6
18 -1 18 -6 0 -13 -7 -16 -15z"/>
<path d="M357 193 c-12 -11 -8 -40 8 -53 13 -11 15 -7 15 24 0 34 -8 44 -23
29z m10 -35 c-3 -7 -5 -2 -5 12 0 14 2 19 5 13 2 -7 2 -19 0 -25z"/>
<path d="M460 185 c0 -8 -6 -12 -13 -9 -7 2 -13 -4 -14 -16 -1 -14 4 -20 18
-20 14 0 19 7 19 30 0 17 -2 30 -5 30 -3 0 -5 -7 -5 -15z"/>
<path d="M590 169 c0 -27 2 -29 15 -15 8 8 15 22 15 30 0 9 -7 16 -15 16 -10
0 -15 -10 -15 -31z"/>
<path d="M261 183 c0 -5 4 -17 9 -28 8 -18 9 -17 9 8 1 15 -3 27 -9 27 -5 0
-10 -3 -9 -7z"/>
<path d="M500 171 c0 -29 15 -33 16 -5 1 13 -2 24 -7 24 -5 0 -9 -9 -9 -19z"/>
<path d="M773 183 c-28 -5 -32 -43 -5 -42 10 0 12 3 5 6 -18 7 -16 23 1 23 8
0 17 -8 19 -17 3 -11 5 -7 6 10 0 15 0 26 -1 26 -2 -1 -13 -4 -25 -6z"/>
<path d="M819 189 c-8 -24 -4 -49 7 -49 8 0 13 8 11 20 -3 18 -15 38 -18 29z"/>
<path d="M160 160 c0 -11 2 -20 4 -20 2 0 6 9 9 20 3 11 1 20 -4 20 -5 0 -9
-9 -9 -20z"/>
<path d="M190 160 c0 -11 7 -20 15 -20 8 0 15 9 15 20 0 11 -7 20 -15 20 -8 0
-15 -9 -15 -20z"/>
<path d="M233 160 c-1 -11 2 -20 8 -20 5 0 9 9 9 20 0 11 -4 20 -8 20 -4 0 -8
-9 -9 -20z"/>
<path d="M290 160 c0 -11 7 -20 15 -20 8 0 15 9 15 20 0 11 -7 20 -15 20 -8 0
-15 -9 -15 -20z"/>
<path d="M391 163 c-1 -14 5 -23 14 -23 9 0 15 9 14 23 0 21 -1 21 -8 2 l-8
-20 -5 20 c-5 18 -6 18 -7 -2z"/>
<path d="M482 160 c0 -14 2 -19 5 -12 2 6 2 18 0 25 -3 6 -5 1 -5 -13z"/>
<path d="M533 149 c2 -32 13 -30 19 4 3 15 0 24 -8 24 -8 0 -12 -11 -11 -28z"/>
<path d="M630 160 c0 -11 2 -20 4 -20 2 0 6 9 9 20 3 11 1 20 -4 20 -5 0 -9
-9 -9 -20z"/>
<path d="M660 160 c0 -11 7 -20 15 -20 8 0 15 9 15 20 0 11 -7 20 -15 20 -8 0
-15 -9 -15 -20z"/>
<path d="M698 152 c-4 -26 -2 -27 19 -18 28 13 31 46 4 46 -13 0 -20 -9 -23
-28z"/>
</g>
</svg>
