<?xml version="1.0" standalone="no"?>
<!DOCTYPE svg PUBLIC "-//W3C//DTD SVG 20010904//EN"
 "http://www.w3.org/TR/2001/REC-SVG-20010904/DTD/svg10.dtd">
<svg version="1.0" xmlns="http://www.w3.org/2000/svg"
 width="48.000000pt" height="48.000000pt" viewBox="0 0 48.000000 48.000000"
 preserveAspectRatio="xMidYMid meet">

<g transform="translate(0.000000,48.000000) scale(0.100000,-0.100000)"
fill="#000000" stroke="none">
<path d="M220 400 c-29 -29 -26 -76 5 -96 29 -19 34 -54 7 -54 -11 0 -25 14
-35 33 -13 26 -16 28 -16 11 -1 -12 7 -32 17 -44 23 -29 59 -20 68 17 6 21 1
31 -26 53 -38 31 -36 53 5 72 31 14 43 4 26 -24 -10 -16 -10 -19 0 -16 24 8
34 35 20 52 -18 22 -47 20 -71 -4z"/>
<path d="M146 180 c3 -14 11 -32 16 -40 6 -10 7 -7 2 10 -3 14 -11 32 -16 40
-6 10 -7 7 -2 -10z"/>
<path d="M192 165 c0 -22 2 -32 5 -22 5 18 5 18 20 0 14 -17 14 -17 5 1 -5 10
-8 28 -5 40 3 20 3 20 -5 1 l-9 -20 -5 20 c-3 11 -6 2 -6 -20z"/>
<path d="M351 163 c0 -29 2 -33 8 -18 7 18 4 55 -5 55 -2 0 -4 -17 -3 -37z"/>
<path d="M393 165 c0 -22 2 -30 4 -17 2 12 2 30 0 40 -3 9 -5 -1 -4 -23z"/>
<path d="M243 175 c-3 -9 -3 -18 -1 -21 3 -3 8 4 11 16 6 23 -1 27 -10 5z"/>
<path d="M285 165 c0 -13 3 -21 8 -18 4 2 7 11 7 20 0 12 5 11 20 -7 11 -13
20 -18 20 -13 0 12 -27 36 -44 39 -6 1 -11 -9 -11 -21z"/>
<path d="M92 158 c7 -15 15 -23 17 -17 2 6 -4 18 -13 27 -15 15 -15 15 -4 -10z"/>
<path d="M60 85 c0 -9 5 -15 11 -13 6 2 11 8 11 13 0 5 -5 11 -11 13 -6 2 -11
-4 -11 -13z"/>
<path d="M183 84 c0 -8 10 -14 24 -14 13 0 23 5 23 12 0 6 -3 8 -6 5 -4 -3
-14 -2 -24 3 -12 6 -17 5 -17 -6z"/>
<path d="M300 90 c0 -5 5 -10 11 -10 5 0 7 5 4 10 -3 6 -8 10 -11 10 -2 0 -4
-4 -4 -10z"/>
<path d="M100 78 c0 -4 9 -8 20 -8 11 0 20 4 20 9 0 6 -9 9 -20 8 -11 -1 -20
-5 -20 -9z"/>
<path d="M245 80 c3 -5 8 -10 11 -10 2 0 4 5 4 10 0 6 -5 10 -11 10 -5 0 -7
-4 -4 -10z"/>
<path d="M330 80 c0 -5 11 -10 25 -10 14 0 25 5 25 10 0 6 -11 10 -25 10 -14
0 -25 -4 -25 -10z"/>
</g>
</svg>
